<svg xmlns="http://www.w3.org/2000/svg" width="40" height="48.555" viewBox="0 0 40 48.555">
  <g id="picto-puzzle" transform="translate(-62.768 -49.9)">
    <path id="Tracé_135" data-name="Tracé 135" d="M132.032,67.94a.7.7,0,0,1,.972.214l.006.01,0,0a.707.707,0,0,1,.135.521.522.522,0,0,1-.032.1,2.335,2.335,0,0,0,.144,1.6,2.392,2.392,0,0,0,.138.253A2.335,2.335,0,1,0,135.78,67.1c-.035-.006-.067-.01-.1-.013l-.087-.009-.113-.055a.827.827,0,0,1-.22-.256v0l-.006-.009a.8.8,0,0,1-.08-.169h0a.7.7,0,0,1,.275-.832l4.7-3L131.928,49.9,119.12,58.086l3.027,4.713h0c0-.02.005-.038.009-.055a3.015,3.015,0,0,1,1.031-1.781,3.114,3.114,0,0,1,.306-.227l.01-.006.007-.005a3.012,3.012,0,1,1,3.244,5.076l-.008,0-.01.007a3.053,3.053,0,0,1-.334.182,3.013,3.013,0,0,1-2.1.178l-.006,0-.008.005,3.046,4.766Z" transform="translate(-38.441)" fill="#42a1c2"/>
    <path id="Tracé_136" data-name="Tracé 136" d="M80.4,103.041a.7.7,0,0,1,.421-.9l.017-.005,0,0a.706.706,0,0,1,.538-.019.541.541,0,0,1,.1.055,2.335,2.335,0,0,0,1.6.209,2.447,2.447,0,0,0,.273-.078,2.336,2.336,0,0,0-1.6-4.389,2.55,2.55,0,0,0-.26.116A2.34,2.34,0,0,0,80.4,99.2c-.014.032-.024.064-.035.1l-.028.083-.078.1a.749.749,0,0,1-.26.145l-.017.006h0l-.072.026a.7.7,0,0,1-.9-.421L77.1,94,62.768,99.213l5.2,14.284,5.259-1.929,0-.006-.051-.02a3.015,3.015,0,0,1-1.514-1.4,2.969,2.969,0,0,1-.155-.348l0-.008,0-.005a3.012,3.012,0,1,1,5.661-2.06l0,.006,0,.007a2.951,2.951,0,0,1,.106.366,3.011,3.011,0,0,1-.284,2.088l0,.006.005.016,5.316-1.935Z" transform="translate(0 -30.08)" fill="#42a1c2"/>
    <path id="Tracé_137" data-name="Tracé 137" d="M88.974,137.6a.7.7,0,0,1-.9-.421l0-.011v0a.707.707,0,0,1-.019-.538.577.577,0,0,1,.054-.1,2.331,2.331,0,1,0-4.26-.276,2.412,2.412,0,0,0,.117.263,2.338,2.338,0,0,0,1.175,1.081c.033.014.066.025.1.036l.083.028.1.077a.826.826,0,0,1,.158.3v0l0,.01a.818.818,0,0,1,.041.183h0a.7.7,0,0,1-.45.753l-5.237,1.906,5.218,14.337,14.284-5.2-1.928-5.26h0c-.007.018-.013.035-.02.051a3.041,3.041,0,0,1-1.743,1.669l-.012,0-.008,0a3.012,3.012,0,0,1-2.06-5.661l.009,0,.011,0a3.054,3.054,0,0,1,2.454.178l.006,0,.008,0-1.935-5.316Z" transform="translate(-11.705 -56.771)" fill="#42a1c2"/>
    <path id="Tracé_138" data-name="Tracé 138" d="M123.549,134.595a.7.7,0,0,1-.421.9l-.017.006,0,0a.708.708,0,0,1-.537.019.529.529,0,0,1-.1-.055,2.335,2.335,0,0,0-1.6-.208,2.435,2.435,0,0,0-.273.078,2.336,2.336,0,0,0,1.6,4.389,2.413,2.413,0,0,0,.259-.116,2.334,2.334,0,0,0,1.081-1.175c.014-.034.025-.068.037-.1l.028-.083.076-.09a.758.758,0,0,1,.259-.144l.018-.006h0l.07-.025a.7.7,0,0,1,.9.421l1.906,5.237,14.336-5.218-5.2-14.284-5.26,1.928,0,.007.052.02a3.037,3.037,0,0,1,1.669,1.743l0,.008,0,.005a3.012,3.012,0,1,1-5.661,2.06l0-.006,0-.008a3.049,3.049,0,0,1,.178-2.454l0-.006-.005-.015-5.316,1.935Z" transform="translate(-38.41 -50.642)" fill="#42a1c2"/>
  </g>
</svg>
