<svg xmlns="http://www.w3.org/2000/svg" xmlns:xlink="http://www.w3.org/1999/xlink" viewBox="0 0 150 213.66"><defs><style>.cls-1{fill:url(#Dégradé_sans_nom_4);}.cls-2{fill:url(#Dégradé_sans_nom_4-2);}.cls-3{fill:url(#Dégradé_sans_nom_4-3);}.cls-4{fill:url(#Dégradé_sans_nom_4-4);}.cls-5{fill:url(#Dégradé_sans_nom_4-5);}.cls-6{fill:url(#Dégradé_sans_nom_4-6);}.cls-7{fill:url(#Dégradé_sans_nom_4-7);}</style><linearGradient id="Dégradé_sans_nom_4" x1="75" y1="213.66" x2="75" gradientUnits="userSpaceOnUse"><stop offset="0" stop-color="#44acca"/><stop offset="1" stop-color="#354e85"/></linearGradient><linearGradient id="Dégradé_sans_nom_4-2" x1="90.66" y1="244.42" x2="-93.75" y2="50.04" xlink:href="#Dégradé_sans_nom_4"/><linearGradient id="Dégradé_sans_nom_4-3" x1="123.65" y1="213.12" x2="-60.75" y2="18.74" xlink:href="#Dégradé_sans_nom_4"/><linearGradient id="Dégradé_sans_nom_4-4" x1="109.77" y1="226.29" x2="-74.63" y2="31.91" xlink:href="#Dégradé_sans_nom_4"/><linearGradient id="Dégradé_sans_nom_4-5" x1="142.77" y1="194.98" x2="-41.63" y2="0.6" xlink:href="#Dégradé_sans_nom_4"/><linearGradient id="Dégradé_sans_nom_4-6" x1="128.89" y1="208.16" x2="-55.52" y2="13.78" xlink:href="#Dégradé_sans_nom_4"/><linearGradient id="Dégradé_sans_nom_4-7" x1="161.88" y1="176.85" x2="-22.52" y2="-17.53" xlink:href="#Dégradé_sans_nom_4"/></defs><g id="Calque_2" data-name="Calque 2"><g id="Calque_1-2" data-name="Calque 1"><g id="Groupe_799" data-name="Groupe 799"><path class="cls-1" d="M146,4a13.47,13.47,0,0,0-9.6-4H57.05a3.24,3.24,0,0,0-2.28.94L.94,54.77A3.26,3.26,0,0,0,0,57.05v143a13.59,13.59,0,0,0,13.57,13.57H136.43A13.59,13.59,0,0,0,150,200.09V13.57A13.48,13.48,0,0,0,146,4Zm-2.46,196.11a7.15,7.15,0,0,1-7.14,7.14H13.57a7.15,7.15,0,0,1-7.14-7.14V58.38l1.34-1.33H46.69A10.36,10.36,0,0,0,57.05,46.69V7.77l1.33-1.34h78.05a7.15,7.15,0,0,1,7.14,7.14Z"/><rect id="Rectangle_448" data-name="Rectangle 448" class="cls-2" x="19.48" y="169.93" width="19.92" height="19.92"/><path class="cls-3" d="M127.88,183.11H56.39a3.22,3.22,0,1,1,0-6.43h71.49a3.22,3.22,0,0,1,0,6.43Z"/><rect id="Rectangle_449" data-name="Rectangle 449" class="cls-4" x="19.48" y="131.65" width="19.92" height="19.92"/><path class="cls-5" d="M127.88,144.83H56.39a3.22,3.22,0,0,1,0-6.44h71.49a3.22,3.22,0,0,1,0,6.44Z"/><rect id="Rectangle_450" data-name="Rectangle 450" class="cls-6" x="19.48" y="93.37" width="19.92" height="19.92"/><path class="cls-7" d="M127.88,106.54H56.39a3.22,3.22,0,1,1,0-6.43h71.49a3.22,3.22,0,0,1,0,6.43Z"/></g></g></g></svg>