<svg xmlns="http://www.w3.org/2000/svg" width="31.982" height="35.162" viewBox="0 0 31.982 35.162">
  <g id="picto-focus-grey" transform="translate(-534.001 -3071.016)">
    <path id="Tracé_87" data-name="Tracé 87" d="M132.586,189.582c-.276-1.005-.674-1.52-4.532-1.51-1.506,0-3.4.022-4.819,0a28.338,28.338,0,0,1-5.817-.731c-.915-.091-2.125-.94-.856-4.3s-.208-6.244-2.292-5.6c-1.363.419-.3,4.072-3.023,8.381-2.46,3.9-4.507,6.032-1.463,10.881,2.526,4.023,7.817,3.184,9.546,2.781l-.113-.051a25.673,25.673,0,0,1-2.342-1.249q-.284-.169-.564-.343l-.28-.176-.143-.092c-.017-.012-.06-.04-.083-.06s-.053-.045-.079-.069a1.1,1.1,0,0,1-.335-.735,1.082,1.082,0,0,1,.055-.4,1.37,1.37,0,0,1,.17-.346,1.172,1.172,0,0,1,.619-.454,1.864,1.864,0,0,1,.717-.066,4.645,4.645,0,0,1,1.307.347.13.13,0,0,1-.089.244h0a4.355,4.355,0,0,0-1.234-.26,1.515,1.515,0,0,0-.577.082.783.783,0,0,0-.4.328.962.962,0,0,0-.1.247.651.651,0,0,0-.021.247.644.644,0,0,0,.219.418c.015.013.031.025.047.036a.61.61,0,0,0,.052.033l.137.078.284.158q.285.157.573.307a25.055,25.055,0,0,0,2.347,1.091,12.531,12.531,0,0,0,1.2.413,6.269,6.269,0,0,0,.842.18c1.506-.263.837-2.175,1.873-2.459,1.146-.315,1.578-1.735.661-2.955a2.145,2.145,0,0,0,.718-3.245s1.7-.135,4.494-.344C131.834,190.2,132.682,190.406,132.586,189.582Z" transform="translate(425.744 2906.338)" fill="#535353"/>
    <path id="Tracé_88" data-name="Tracé 88" d="M172.7,80.813c.276,1,.674,1.52,4.532,1.51,1.507,0,3.4-.022,4.819,0a28.337,28.337,0,0,1,5.817.731c.915.091,2.125.94.856,4.3s.209,6.244,2.293,5.6c1.363-.419.3-4.073,3.023-8.381,2.46-3.9,4.507-6.032,1.463-10.88-2.9-4.617-9.242-2.758-9.433-2.73a20.533,20.533,0,0,1-2.318.041c-1.506.263-.837,2.175-1.873,2.459-1.146.315-1.578,1.735-.661,2.955a2.145,2.145,0,0,0-.718,3.245s-1.7.135-4.494.344C173.456,80.2,172.608,79.989,172.7,80.813Z" transform="translate(368.951 3000.447)" fill="#535353"/>
    <path id="Tracé_89" data-name="Tracé 89" d="M148.046,57.662A2.211,2.211,0,1,1,143.7,57.1l2.12.568.016-.005L144.272,56.1a2.211,2.211,0,0,1,3.774,1.563Z" transform="translate(404.138 3030.946)" fill="#535353"/>
  </g>
</svg>
