<svg xmlns="http://www.w3.org/2000/svg" xmlns:xlink="http://www.w3.org/1999/xlink" viewBox="0 0 145.562 160.031">
  <defs>
    <linearGradient id="linear-gradient" x1="0.5" x2="0.5" y2="1" gradientUnits="objectBoundingBox">
      <stop offset="0" stop-color="#44acca"/>
      <stop offset="1" stop-color="#354e85"/>
    </linearGradient>
  </defs>
  <g id="Groupe_744" data-name="Groupe 744" transform="translate(-534 -3071.016)">
    <g id="Groupe_585" data-name="Groupe 585" transform="translate(534 3071.016)">
      <g id="Groupe_584" data-name="Groupe 584" transform="translate(0 0)">
        <path id="Tracé_87" data-name="Tracé 87" d="M218.982,233.018c-1.256-4.574-3.069-6.918-20.628-6.872-6.856.017-15.493.1-21.932.017-14.687-.19-24.846-3.164-26.473-3.326-4.166-.414-9.67-4.279-3.9-19.58s-.948-28.416-10.433-25.5c-6.2,1.907-1.376,18.535-13.757,38.144-11.195,17.732-20.511,27.453-6.657,49.519,11.494,18.308,35.578,14.489,43.447,12.658-.171-.078-.344-.152-.514-.231a116.852,116.852,0,0,1-10.66-5.683q-1.293-.769-2.569-1.563l-1.273-.8-.652-.418c-.079-.052-.272-.184-.379-.274-.125-.1-.243-.2-.358-.313a5.006,5.006,0,0,1-1.524-3.347,4.926,4.926,0,0,1,.251-1.821,6.236,6.236,0,0,1,.773-1.577,5.335,5.335,0,0,1,2.818-2.065,8.48,8.48,0,0,1,3.261-.3,21.141,21.141,0,0,1,5.946,1.58.592.592,0,0,1-.407,1.11l-.007,0a19.816,19.816,0,0,0-5.617-1.181,6.9,6.9,0,0,0-2.628.375,3.563,3.563,0,0,0-1.832,1.492,4.379,4.379,0,0,0-.472,1.122,2.963,2.963,0,0,0-.094,1.125,2.93,2.93,0,0,0,1,1.9c.069.057.139.113.214.165a2.764,2.764,0,0,0,.235.15l.625.353,1.294.718q1.3.713,2.609,1.4a114.039,114.039,0,0,0,10.681,4.967,57.051,57.051,0,0,0,5.481,1.881,28.562,28.562,0,0,0,3.83.818c6.855-1.2,3.811-9.9,8.524-11.193,5.217-1.434,7.182-7.9,3.007-13.45,5.162-2.2,7.284-9.793,3.268-14.769,0,0,7.737-.614,20.454-1.566C215.557,235.813,219.417,236.768,218.982,233.018Z" transform="translate(-108.257 -119.676)" fill="url(#linear-gradient)"/>
        <path id="Tracé_88" data-name="Tracé 88" d="M172.728,117.187c1.256,4.574,3.068,6.917,20.628,6.872,6.857-.017,15.493-.1,21.932-.017,14.687.19,24.846,3.163,26.473,3.325,4.166.414,9.669,4.279,3.9,19.579s.949,28.416,10.434,25.5c6.2-1.908,1.377-18.535,13.757-38.144,11.2-17.732,20.511-27.452,6.657-49.518-13.191-21.011-42.062-12.552-42.933-12.427a93.449,93.449,0,0,1-10.548.188c-6.854,1.2-3.81,9.9-8.524,11.192-5.216,1.433-7.181,7.9-3.007,13.45-5.162,2.2-7.284,9.793-3.268,14.768,0,0-7.737.615-20.454,1.566C176.155,114.392,172.294,113.437,172.728,117.187Z" transform="translate(-137.892 -70.569)" fill="url(#linear-gradient)"/>
      </g>
    </g>
    <path id="Tracé_89" data-name="Tracé 89" d="M163.75,65.513a10.063,10.063,0,1,1-19.785-2.561l9.649,2.586.075-.024L146.572,58.4a10.062,10.062,0,0,1,17.178,7.115Z" transform="translate(453.008 3085.567)" fill="url(#linear-gradient)"/>
  </g>
</svg>
