<svg xmlns="http://www.w3.org/2000/svg" width="40" height="39.985" viewBox="0 0 40 39.985">
  <path id="picto-time" d="M71.809,28.121a1.21,1.21,0,0,1-.858-.356l-7.27-7.27V13.742a1.214,1.214,0,0,1,2.428,0V19.49l6.559,6.559a1.214,1.214,0,0,1-.858,2.072Zm7.159,6.009a1.214,1.214,0,0,0-1.716-1.716A17.566,17.566,0,1,1,64.83,2.428,1.214,1.214,0,1,0,64.83,0,19.993,19.993,0,1,0,78.968,34.13Zm5.868-14.166a1.214,1.214,0,1,1-1.214-1.214A1.214,1.214,0,0,1,84.836,19.963Zm-.682-5.19a1.214,1.214,0,1,1-1.486-.858A1.213,1.213,0,0,1,84.154,14.773Zm-2-4.836a1.214,1.214,0,1,1-1.658-.445A1.213,1.213,0,0,1,82.152,9.937ZM78.967,5.783a1.214,1.214,0,1,1-1.716,0A1.213,1.213,0,0,1,78.967,5.783ZM82.668,26a1.214,1.214,0,1,1,1.486-.858A1.214,1.214,0,0,1,82.668,26Zm-2.174,4.423a1.214,1.214,0,1,1,1.658-.445A1.215,1.215,0,0,1,80.494,30.423ZM74.815,2.6a1.214,1.214,0,1,1-1.658.444A1.213,1.213,0,0,1,74.815,2.6Zm-4.835-2a1.214,1.214,0,1,1-1.487.858A1.213,1.213,0,0,1,69.98.591Z" transform="translate(-44.836)" fill="#42a1c2"/>
</svg>
