<svg xmlns="http://www.w3.org/2000/svg" width="40.808" height="25.48" viewBox="0 0 40.808 25.48">
  <path id="picto-sentinelle-grey" d="M71.685,11.85C71.327,11.367,62.808,0,51.937,0S32.548,11.367,32.189,11.851l-.656.89.656.89c.358.483,8.876,11.85,19.747,11.85s19.39-11.367,19.748-11.85l.656-.89ZM51.945,21.985a9.225,9.225,0,1,1,9.225-9.225A9.235,9.235,0,0,1,51.945,21.985Zm5.176-9.273A5.17,5.17,0,1,1,46.955,11.4l4.957,1.329.039-.012L48.295,9.057a5.17,5.17,0,0,1,8.826,3.656Zm-21.8.028a36.725,36.725,0,0,1,5.706-5.454,12.18,12.18,0,0,0-.034,10.881A36.709,36.709,0,0,1,35.317,12.74Zm27.594,5.406a12.181,12.181,0,0,0-.035-10.838,36.727,36.727,0,0,1,5.681,5.433A36.814,36.814,0,0,1,62.911,18.146Z" transform="translate(-31.533)" fill="#535353"/>
</svg>
