<svg xmlns="http://www.w3.org/2000/svg" width="38.564" height="47.848" viewBox="0 0 38.564 47.848">
  <path id="award" d="M147.1,133.564a4.411,4.411,0,0,1,3.962-2.286,2.391,2.391,0,0,0,2.658-2.663A4.4,4.4,0,0,1,156,124.662a2.384,2.384,0,0,0,.972-3.628,4.415,4.415,0,0,1,0-4.572,2.378,2.378,0,0,0-.972-3.622,4.415,4.415,0,0,1-2.281-3.966,2.388,2.388,0,0,0-2.658-2.654,4.414,4.414,0,0,1-3.962-2.286,2.384,2.384,0,0,0-3.625-.972,4.405,4.405,0,0,1-4.571,0,2.384,2.384,0,0,0-3.626.972,4.405,4.405,0,0,1-3.959,2.286,2.385,2.385,0,0,0-2.654,2.654,4.436,4.436,0,0,1-2.287,3.966,2.377,2.377,0,0,0-.972,3.622,4.395,4.395,0,0,1,0,4.572,2.381,2.381,0,0,0,.972,3.628,4.41,4.41,0,0,1,2.287,3.953,2.389,2.389,0,0,0,2.654,2.663,4.41,4.41,0,0,1,3.961,2.286,2.377,2.377,0,0,0,3.624.968,4.447,4.447,0,0,1,4.571,0A2.379,2.379,0,0,0,147.1,133.564Zm-5.906-5.254a9.562,9.562,0,1,1,9.56-9.564A9.562,9.562,0,0,1,141.189,128.31Zm-10.029,4.37c-1.838,0-2.083-.856-2.083-.856L121.9,145.93l5.754-.647,3.182,4.789s6.63-13.835,6.63-13.741C134.031,136.244,135.4,132.772,131.16,132.68Zm22.039-.3c-5.243.548-4.176,1.848-5.375,2.86a3.685,3.685,0,0,1-3.1,1.183l8.093,13.926,1.99-5.157,5.66.738Zm-10.012-15.741-2-4.052-2,4.052-4.479.656,3.236,3.157-.763,4.465,4.008-2.106,4.009,2.106-.762-4.465,3.236-3.157Z" transform="translate(-121.901 -102.499)" fill="#42a1c2"/>
</svg>
