<svg xmlns="http://www.w3.org/2000/svg" width="36.371" height="41.661" viewBox="0 0 36.371 41.661">
  <g id="picto-network" transform="translate(-203.452 -96.564)">
    <path id="Tracé_146" data-name="Tracé 146" d="M263.34,150.19a5.142,5.142,0,0,0-5.3-.525" transform="translate(-38.157 -36.743)" fill="none" stroke="#42a1c2" stroke-miterlimit="10" stroke-width="2"/>
    <path id="Tracé_147" data-name="Tracé 147" d="M247.8,164.642a5.126,5.126,0,0,0,3.463,5.625" transform="translate(-30.83 -47.766)" fill="none" stroke="#42a1c2" stroke-miterlimit="10" stroke-width="2"/>
    <path id="Tracé_148" data-name="Tracé 148" d="M278.116,158.959a5.164,5.164,0,0,0-1.656-6.226" transform="translate(-51.277 -39.286)" fill="none" stroke="#42a1c2" stroke-miterlimit="10" stroke-width="2"/>
    <path id="Tracé_149" data-name="Tracé 149" d="M259.97,177.187a5.165,5.165,0,0,0,6.4-2.827" transform="translate(-39.534 -54.687)" fill="none" stroke="#42a1c2" stroke-miterlimit="10" stroke-width="2"/>
    <path id="Tracé_150" data-name="Tracé 150" d="M247.941,154.864a5.176,5.176,0,0,1,2.906-3.953" transform="translate(-30.969 -37.988)" fill="none" stroke="#42a1c2" stroke-miterlimit="10" stroke-width="2"/>
    <path id="Tracé_151" data-name="Tracé 151" d="M291.752,111.563a3.551,3.551,0,1,0-1.435-2.848,3.533,3.533,0,0,0,1.435,2.848" transform="translate(-61.145 -5.41)" fill="none" stroke="#42a1c2" stroke-miterlimit="10" stroke-width="2"/>
    <path id="Tracé_152" data-name="Tracé 152" d="M233.555,104.326a3.548,3.548,0,1,0-1.521.345,3.551,3.551,0,0,0,1.521-.345" transform="translate(-17.11 0)" fill="none" stroke="#42a1c2" stroke-miterlimit="10" stroke-width="2"/>
    <path id="Tracé_153" data-name="Tracé 153" d="M299.531,178.677a3.552,3.552,0,1,0,3.173-1.961,3.533,3.533,0,0,0-3.173,1.961" transform="translate(-67.435 -56.364)" fill="none" stroke="#42a1c2" stroke-miterlimit="10" stroke-width="2"/>
    <path id="Tracé_154" data-name="Tracé 154" d="M211.536,152.751a3.607,3.607,0,0,0,.023-.4,3.565,3.565,0,1,0-.023.4" transform="translate(0 -36.486)" fill="none" stroke="#42a1c2" stroke-miterlimit="10" stroke-width="2"/>
    <path id="Tracé_155" data-name="Tracé 155" d="M239.18,210.828a3.552,3.552,0,1,0,2.415,3.364,3.544,3.544,0,0,0-2.415-3.364" transform="translate(-21.388 -80.52)" fill="none" stroke="#42a1c2" stroke-miterlimit="10" stroke-width="2"/>
    <line id="Ligne_88" data-name="Ligne 88" x2="3.434" y2="8.597" transform="translate(216.444 104.326)" fill="none" stroke="#42a1c2" stroke-miterlimit="10" stroke-width="2"/>
    <line id="Ligne_89" data-name="Ligne 89" x1="5.436" y1="0.61" transform="translate(211.536 116.265)" fill="none" stroke="#42a1c2" stroke-miterlimit="10" stroke-width="2"/>
    <line id="Ligne_90" data-name="Ligne 90" y1="7.807" x2="2.644" transform="translate(217.792 122.501)" fill="none" stroke="#42a1c2" stroke-miterlimit="10" stroke-width="2"/>
    <line id="Ligne_91" data-name="Ligne 91" x1="5.425" y2="7.293" transform="translate(225.183 106.154)" fill="none" stroke="#42a1c2" stroke-miterlimit="10" stroke-width="2"/>
    <line id="Ligne_92" data-name="Ligne 92" x1="5.257" y1="2.639" transform="translate(226.839 119.674)" fill="none" stroke="#42a1c2" stroke-miterlimit="10" stroke-width="2"/>
  </g>
</svg>
