<svg xmlns="http://www.w3.org/2000/svg" viewBox="0 0 20 12.49"><defs><style>.cls-1{fill:#535353;}</style></defs><g id="Calque_2" data-name="Calque 2"><g id="Calque_1-2" data-name="Calque 1"><path id="picto-sentinelle-grey" class="cls-1" d="M19.68,5.81C19.5,5.57,15.33,0,10,0S.5,5.57.32,5.81L0,6.24l.32.44c.18.24,4.35,5.81,9.68,5.81s9.5-5.57,9.68-5.81L20,6.24Zm-9.68,5a4.53,4.53,0,1,1,4.53-4.53h0A4.55,4.55,0,0,1,10,10.78Zm2.54-4.55a2.54,2.54,0,0,1-5.07,0,2.39,2.39,0,0,1,.09-.66L10,6.24h0L8.22,4.44a2.53,2.53,0,0,1,4.32,1.79Zm-10.68,0A18.55,18.55,0,0,1,4.65,3.57a6,6,0,0,0,0,5.33A17.55,17.55,0,0,1,1.85,6.24ZM15.38,8.89a5.94,5.94,0,0,0,0-5.31,18.49,18.49,0,0,1,2.79,2.66,18.26,18.26,0,0,1-2.77,2.65Z"/></g></g></svg>