<svg xmlns="http://www.w3.org/2000/svg" width="40" height="44.673" viewBox="0 0 40 44.673">
  <path id="picto-team" d="M149.412,44.673a2.689,2.689,0,0,1-2.689-2.688V28.209a1.961,1.961,0,0,1-.906.229,1.981,1.981,0,0,1-1.98-1.98V14.827c0-1.947,3.517-3.079,8.093-3.079s8.093,1.132,8.093,3.079V26.458a1.98,1.98,0,0,1-1.98,1.98,1.955,1.955,0,0,1-.9-.229V41.985a2.688,2.688,0,0,1-5.208.937A2.688,2.688,0,0,1,149.412,44.673Zm7.476-39.718a4.958,4.958,0,1,0-4.959,4.958A4.947,4.947,0,0,0,156.888,4.955ZM131.93,16.48v9.071a1.534,1.534,0,0,0,2.252,1.366V37.662a2.1,2.1,0,0,0,4.061.731,2.1,2.1,0,0,0,4.061-.731V14.568a15.206,15.206,0,0,0-4.061-.489C134.673,14.078,131.93,14.961,131.93,16.48Zm10.18-7.7a3.867,3.867,0,1,0-3.868,3.867A3.859,3.859,0,0,0,142.11,8.78Zm23.507,5.3a15.206,15.206,0,0,0-4.061.489V37.662a2.1,2.1,0,0,0,4.061.731,2.1,2.1,0,0,0,4.061-.731V26.917a1.534,1.534,0,0,0,2.252-1.366V16.48C171.93,14.961,169.187,14.078,165.617,14.078Zm0-1.431A3.866,3.866,0,1,0,161.75,8.78,3.86,3.86,0,0,0,165.618,12.647Z" transform="translate(-131.93)" fill="#42a1c2"/>
</svg>
