<svg xmlns="http://www.w3.org/2000/svg" viewBox="0 0 20 21.99"><defs><style>.cls-1{fill:#535353;}</style></defs><g id="Calque_2" data-name="Calque 2"><g id="Calque_1-2" data-name="Calque 1"><g id="picto-focus-grey"><path id="Tracé_87" data-name="Tracé 87" class="cls-1" d="M15.22,15.57c-.18-.62-.43-1-2.84-.94h-3a17.78,17.78,0,0,1-3.64-.46c-.57-.05-1.33-.58-.54-2.69S5.06,7.58,3.76,8c-.85.26-.19,2.55-1.89,5.24C.33,15.66-.95,17,1,20c1.58,2.51,4.89,2,6,1.74l-.07,0A15.78,15.78,0,0,1,5.39,21L5,20.74l-.18-.11-.09-.06s0,0,0,0l0,0A.71.71,0,0,1,4.46,20a.73.73,0,0,1,0-.25.81.81,0,0,1,.1-.21A.75.75,0,0,1,5,19.28a1.13,1.13,0,0,1,.45,0,3,3,0,0,1,.82.22.07.07,0,0,1,0,.1.09.09,0,0,1-.1.05h0a2.58,2.58,0,0,0-.77-.16.87.87,0,0,0-.36.05.46.46,0,0,0-.25.2.77.77,0,0,0-.07.16.76.76,0,0,0,0,.15.38.38,0,0,0,.14.26l0,0,0,0,.09.05.17.09.36.2c.48.25,1,.48,1.47.68.24.1.5.18.75.26a4.52,4.52,0,0,0,.53.11c.94-.16.52-1.36,1.17-1.54a1.12,1.12,0,0,0,.41-1.85,1.35,1.35,0,0,0,.6-1.8c-.05-.08-.09-.15-.15-.23l2.81-.21C14.75,16,15.28,16.09,15.22,15.57Z"/><path id="Tracé_88" data-name="Tracé 88" class="cls-1" d="M4.78,6.41c.18.62.43,1,2.84.94h3a17.78,17.78,0,0,1,3.64.46c.57.05,1.33.59.54,2.69s.13,3.9,1.43,3.5c.85-.26.19-2.55,1.89-5.24C19.67,6.32,21,5,19.05,2,17.23-.93,13.27.23,13.15.25a14.07,14.07,0,0,1-1.45,0c-.95.17-.53,1.36-1.18,1.54a1.12,1.12,0,0,0-.41,1.85,1.33,1.33,0,0,0-.59,1.8,1.76,1.76,0,0,0,.14.23L6.85,5.9C5.26,6,4.73,5.89,4.78,6.41Z"/><path id="Tracé_89" data-name="Tracé 89" class="cls-1" d="M11.37,11a1.38,1.38,0,0,1-2.76,0,1.5,1.5,0,0,1,0-.37L10,11h0L9,10a1.39,1.39,0,0,1,2,0,1.35,1.35,0,0,1,.4,1Z"/></g></g></g></svg>