<svg xmlns="http://www.w3.org/2000/svg" width="34.372" height="33.825" viewBox="0 0 34.372 33.825">
  <g id="picto-audit" transform="translate(-32.873 -100.758)">
    <path id="Tracé_141" data-name="Tracé 141" d="M65.794,129.009l-7.324-6.4-.013-.012a14,14,0,1,0-3.348,3.465c.019.02.036.041.056.06l6.453,7.192C65.231,136.8,69.553,132.337,65.794,129.009Zm-26.8-6.127A11.319,11.319,0,1,1,55,122.633,11.319,11.319,0,0,1,38.991,122.882Z" fill="#42a1c2"/>
    <g id="Groupe_1174" data-name="Groupe 1174" transform="translate(37.277 108.159)">
      <path id="Tracé_142" data-name="Tracé 142" d="M58.315,165.114v3.758A9.722,9.722,0,0,0,62.2,171.7v-6.589Z" transform="translate(-56.216 -156.064)" fill="#42a1c2"/>
      <path id="Tracé_143" data-name="Tracé 143" d="M53.934,137.3a1.484,1.484,0,0,0,1.362-.9l3.222.5a1.484,1.484,0,1,0,2.787-.845l3.945-3.618a1.483,1.483,0,1,0-.506-.551L60.8,135.509a1.481,1.481,0,0,0-2.167.657l-3.222-.5a1.484,1.484,0,1,0-2.875.644L50.1,137.956c.045.265.1.528.167.789l2.685-1.814A1.476,1.476,0,0,0,53.934,137.3Z" transform="translate(-50.102 -129.711)" fill="#42a1c2"/>
      <path id="Tracé_144" data-name="Tracé 144" d="M82.024,168.777v6.235a9.776,9.776,0,0,0,3.889-.206v-6.029Z" transform="translate(-73.864 -158.791)" fill="#42a1c2"/>
      <path id="Tracé_145" data-name="Tracé 145" d="M109.621,154.348v-6.732h-3.889V158.2a9.763,9.763,0,0,0,3.889-3.852Z" transform="translate(-91.511 -143.039)" fill="#42a1c2"/>
    </g>
  </g>
</svg>
