<svg xmlns="http://www.w3.org/2000/svg" width="40" height="29.05" viewBox="0 0 40 29.05">
  <g id="picto-hammer" transform="translate(-241.416 -728)">
    <g id="Groupe_1040" data-name="Groupe 1040" transform="translate(244.031 728)">
      <path id="Tracé_128" data-name="Tracé 128" d="M707.566,1086.3a.9.9,0,0,0,.3,1.208l-2.6,4.548a.9.9,0,0,0-.854,1.591l8.1,4.626a.9.9,0,0,0,.9-1.57l-.041-.024,2.6-4.544.041.024a.9.9,0,1,0,.9-1.57l-8.1-4.626A.9.9,0,0,0,707.566,1086.3Z" transform="translate(-701.299 -1081.771)" fill="#42a1c2"/>
      <path id="Tracé_129" data-name="Tracé 129" d="M707.566,1086.3a.9.9,0,0,0,.3,1.208l-2.6,4.548a.9.9,0,0,0-.854,1.591l8.1,4.626a.9.9,0,0,0,.9-1.57l-.041-.024,2.6-4.544.041.024a.9.9,0,1,0,.9-1.57l-8.1-4.626A.9.9,0,0,0,707.566,1086.3Z" transform="translate(-701.299 -1081.771)" fill="#42a1c2"/>
      <path id="Tracé_130" data-name="Tracé 130" d="M1724.686,1819.565l-1.29,2.257c.019.06.034.12.049.181l19.181,12.286c.07.045.146.088.222.127a2.525,2.525,0,0,0,2.28-4.5Z" transform="translate(-1709.128 -1807.13)" fill="#42a1c2"/>
      <path id="Tracé_131" data-name="Tracé 131" d="M707.566,1086.3a.9.9,0,0,0,.3,1.208l-2.6,4.548a.9.9,0,0,0-.854,1.591l8.1,4.626a.9.9,0,0,0,.9-1.57l-.041-.024,2.6-4.544.041.024a.9.9,0,1,0,.9-1.57l-8.1-4.626A.9.9,0,0,0,707.566,1086.3Z" transform="translate(-701.299 -1081.771)" fill="#42a1c2"/>
      <g id="Groupe_1038" data-name="Groupe 1038" transform="translate(0 13.483)">
        <path id="Tracé_132" data-name="Tracé 132" d="M480.688,1919.177a1.563,1.563,0,0,1-1.021-.188l-7.931-4.531a1.57,1.57,0,1,1,1.558-2.726l7.93,4.531a1.57,1.57,0,0,1-.536,2.914Z" transform="translate(-470.945 -1911.525)" fill="#42a1c2"/>
      </g>
      <g id="Groupe_1039" data-name="Groupe 1039" transform="translate(7.759 0)">
        <path id="Tracé_133" data-name="Tracé 133" d="M1161.737,735.652a1.563,1.563,0,0,1-1.021-.188l-7.931-4.531a1.57,1.57,0,1,1,1.558-2.726l7.931,4.531a1.57,1.57,0,0,1-.536,2.914Z" transform="translate(-1151.994 -728)" fill="#42a1c2"/>
      </g>
    </g>
    <path id="Tracé_134" data-name="Tracé 134" d="M260.445,2805.669h-.285v-2.632a1.078,1.078,0,0,0-1.078-1.078H243.446a1.078,1.078,0,0,0-1.078,1.078v2.632h-.1a.856.856,0,0,0,0,1.713h18.172a.856.856,0,0,0,0-1.713Z" transform="translate(0 -2050.332)" fill="#42a1c2"/>
  </g>
</svg>
