<svg xmlns="http://www.w3.org/2000/svg" width="40" height="43.696" viewBox="0 0 40 43.696">
  <path id="picto-bulb" d="M80.877,18.338a.816.816,0,0,1-.749-1.133A7.511,7.511,0,0,1,84.1,13.229a.815.815,0,0,1,.636,1.5,5.884,5.884,0,0,0-3.112,3.112A.814.814,0,0,1,80.877,18.338Zm6.928-13V.814a.814.814,0,0,0-1.629,0V5.339a.814.814,0,0,0,1.629,0ZM80.067,8.009a.814.814,0,0,0,.3-1.113L78.1,2.977a.814.814,0,1,0-1.411.815l2.262,3.919a.814.814,0,0,0,1.113.3ZM75,13.076a.814.814,0,0,0-.3-1.112L70.782,9.7a.815.815,0,1,0-.815,1.411l3.918,2.262a.814.814,0,0,0,1.113-.3ZM73.144,20a.814.814,0,0,0-.815-.814H67.8a.815.815,0,1,0,0,1.629h4.525A.814.814,0,0,0,73.144,20ZM95.026,7.711l2.262-3.919a.814.814,0,1,0-1.41-.815L93.616,6.9a.814.814,0,1,0,1.41.815Zm5.068,5.664,3.918-2.262A.814.814,0,0,0,103.2,9.7l-3.919,2.262a.815.815,0,1,0,.815,1.411ZM106.99,20a.814.814,0,0,0-.815-.814h-4.525a.815.815,0,1,0,0,1.629h4.525A.814.814,0,0,0,106.99,20Zm-8.844.145a11.712,11.712,0,0,1-1.6,5.774c-.2.355-2.48,4.47-2.87,5.148a6.354,6.354,0,0,0-.928,3.873v5.417c0,.4-.139.54-.591.739a13.11,13.11,0,0,1-3.038.562,2.127,2.127,0,0,1-4.25,0,13.115,13.115,0,0,1-3.038-.562c-.452-.2-.591-.334-.591-.739V34.94a6.356,6.356,0,0,0-.928-3.873c-.391-.679-2.671-4.793-2.871-5.148a11.712,11.712,0,0,1-1.6-5.774,11.157,11.157,0,1,1,22.313,0Zm-11.593,18.6a.457.457,0,0,0-.457-.457H83.733a.456.456,0,1,0,0,.913H86.1A.457.457,0,0,0,86.553,38.745Zm.87-2.343a.456.456,0,0,0-.456-.456H83.733a.456.456,0,1,0,0,.912h3.234A.456.456,0,0,0,87.423,36.4Zm9.095-16.257a9.528,9.528,0,1,0-19.056,0,10.105,10.105,0,0,0,1.4,4.975c.2.357,2.479,4.469,2.863,5.136a7.248,7.248,0,0,1,1.086,3.278.43.43,0,0,0,.421.379h7.524a.429.429,0,0,0,.421-.379,7.252,7.252,0,0,1,1.086-3.278c.384-.667,2.662-4.778,2.863-5.136A10.1,10.1,0,0,0,96.518,20.145Z" transform="translate(-66.99)" fill="#42a1c2"/>
</svg>
