<svg xmlns="http://www.w3.org/2000/svg" xmlns:xlink="http://www.w3.org/1999/xlink" viewBox="0 0 199.32 124.454">
  <defs>
    <linearGradient id="linear-gradient" x1="0.904" y1="-0.059" x2="0.36" y2="1.038" gradientUnits="objectBoundingBox">
      <stop offset="0" stop-color="#44acca"/>
      <stop offset="1" stop-color="#354e85"/>
    </linearGradient>
  </defs>
  <path id="Tracé_85" data-name="Tracé 85" d="M227.646,57.88C225.9,55.521,184.288,0,131.191,0s-94.7,55.521-96.453,57.883l-3.205,4.345,3.205,4.346c1.75,2.361,43.354,57.88,96.453,57.88s94.706-55.519,96.455-57.88l3.206-4.346Zm-96.417,49.5a45.058,45.058,0,1,1,45.059-45.056A45.105,45.105,0,0,1,131.229,107.383Zm25.28-45.292a25.253,25.253,0,1,1-49.65-6.426l24.213,6.49.188-.061L113.4,44.236a25.252,25.252,0,0,1,43.107,17.855Zm-106.492.137A179.378,179.378,0,0,1,77.888,35.589a59.492,59.492,0,0,0-.166,53.147A179.3,179.3,0,0,1,50.017,62.228Zm134.778,26.4a59.5,59.5,0,0,0-.172-52.937,179.384,179.384,0,0,1,27.746,26.534A179.809,179.809,0,0,1,184.795,88.632Z" transform="translate(-31.533)" fill="url(#linear-gradient)"/>
</svg>
