<svg xmlns="http://www.w3.org/2000/svg" width="40" height="35.628" viewBox="0 0 40 35.628">
  <path id="picto-gears" d="M95,8.808l-2.842-.864a6.142,6.142,0,0,0-.268-1.014l2.027-2.167a4.21,4.21,0,0,0-1.7-2.214L89.6,3.946a6.159,6.159,0,0,0-.91-.522l-.1-2.969A4.208,4.208,0,0,0,85.825.091L84.96,2.933a6.188,6.188,0,0,0-1.014.268L81.78,1.175a4.2,4.2,0,0,0-2.214,1.7l1.4,2.618a6.15,6.15,0,0,0-.521.91l-2.97.1a4.21,4.21,0,0,0-.364,2.767l2.842.864a6.06,6.06,0,0,0,.268,1.014l-2.027,2.167a4.21,4.21,0,0,0,1.7,2.214l2.617-1.4a6.188,6.188,0,0,0,.91.521l.1,2.969a4.209,4.209,0,0,0,2.767.364l.865-2.842a6.149,6.149,0,0,0,1.013-.268L90.328,16.9a4.218,4.218,0,0,0,2.215-1.7l-1.4-2.618a6.088,6.088,0,0,0,.522-.91l2.969-.1A4.2,4.2,0,0,0,95,8.808Zm-7.323,2.345a2.667,2.667,0,1,1,.492-3.738A2.667,2.667,0,0,1,87.678,11.153Zm-7.264,5.886-4.375.427a9.136,9.136,0,0,0-.949-1.235l1.546-4.117a6.243,6.243,0,0,0-3.582-2.069l-2.793,3.4a9.18,9.18,0,0,0-1.544-.205l-1.817-4a6.241,6.241,0,0,0-4,1.071l.428,4.375a9.159,9.159,0,0,0-1.235.95L57.98,14.085a6.248,6.248,0,0,0-2.068,3.583l3.4,2.792A9.144,9.144,0,0,0,59.1,22l-4,1.817a6.237,6.237,0,0,0,1.071,4l4.375-.428a9.166,9.166,0,0,0,.95,1.234l-1.546,4.117a6.24,6.24,0,0,0,3.582,2.069l2.793-3.4a9.1,9.1,0,0,0,1.543.205l1.817,4a6.245,6.245,0,0,0,4-1.071l-.427-4.375a9.09,9.09,0,0,0,1.234-.95l4.118,1.546a6.249,6.249,0,0,0,2.068-3.583l-3.4-2.792a9.055,9.055,0,0,0,.205-1.544l4-1.817a6.246,6.246,0,0,0-1.071-3.995ZM69.378,26.477a4.192,4.192,0,1,1,2.965-5.134A4.192,4.192,0,0,1,69.378,26.477Z" transform="translate(-55.093 0)" fill="#42a1c2"/>
</svg>
