<svg xmlns="http://www.w3.org/2000/svg" viewBox="0 0 99 99"><defs><style>.cls-1{fill:#fff;}</style></defs><g id="Calque_2" data-name="Calque 2"><g id="Calque_1-2" data-name="Calque 1"><g id="Groupe_512" data-name="Groupe 512"><path class="cls-1" d="M49.5,4A45.5,45.5,0,1,1,4,49.5,45.55,45.55,0,0,1,49.5,4m0-4A49.5,49.5,0,1,0,99,49.5,49.5,49.5,0,0,0,49.5,0Z"/><path id="play-solid" class="cls-1" d="M68.88,46.41,42.44,30.78A3.59,3.59,0,0,0,37.52,32,3.52,3.52,0,0,0,37,33.88V65.13a3.59,3.59,0,0,0,5.44,3.1L68.88,52.61a3.6,3.6,0,0,0,1.27-4.93A3.68,3.68,0,0,0,68.88,46.41Z"/></g></g></g></svg>