<svg xmlns="http://www.w3.org/2000/svg" width="40" height="35.612" viewBox="0 0 40 35.612">
  <g id="picto-diapason" transform="translate(-17.352 -24.827)">
    <g id="Groupe_1036" data-name="Groupe 1036" transform="translate(17.352 24.826)">
      <path id="Tracé_119" data-name="Tracé 119" d="M37.183,27.712a.949.949,0,0,0-.82-.963c-.03,0-.061,0-.091,0a.9.9,0,0,0-.612.237.912.912,0,0,0-.3.674V39.122a5.879,5.879,0,0,0,4.866,5.8,1.363,1.363,0,0,1,1.128,1.322l.083,6.382a1.362,1.362,0,0,1-.733,1.224,3.759,3.759,0,0,0-2.046,3.623,3.8,3.8,0,0,0,3.561,3.478A3.765,3.765,0,0,0,46.17,57.2a3.781,3.781,0,0,0-2.153-3.4,1.351,1.351,0,0,1-.757-1.2l-.083-6.327A1.361,1.361,0,0,1,44.3,44.912a5.886,5.886,0,0,0,4.817-5.79V27.655a.911.911,0,0,0-1-.906.949.949,0,0,0-.819.963V39.122a4.073,4.073,0,0,1-4.069,4.068H41.251a4.072,4.072,0,0,1-4.068-4.068ZM42.851,55.3a1.922,1.922,0,0,1,1.45,1.452h0a1.941,1.941,0,0,1-1.893,2.377,2.009,2.009,0,0,1-.436-.048,1.921,1.921,0,0,1-1.452-1.449A1.944,1.944,0,0,1,42.851,55.3Z" transform="translate(-22.201 -25.343)" fill="#42a1c2"/>
      <path id="Tracé_120" data-name="Tracé 120" d="M66.275,24.935a.391.391,0,0,0-.541,0,.377.377,0,0,0-.113.27.381.381,0,0,0,.112.271,13.067,13.067,0,0,1,3.849,9.3v.061a13.061,13.061,0,0,1-3.847,9.219.384.384,0,0,0,0,.541.391.391,0,0,0,.541,0,13.818,13.818,0,0,0,4.072-9.761v-.072l0-.072A13.83,13.83,0,0,0,66.275,24.935Z" transform="translate(-30.349 -24.826)" fill="#42a1c2"/>
      <path id="Tracé_121" data-name="Tracé 121" d="M61.673,43.017a.382.382,0,0,0,0,.541.391.391,0,0,0,.541,0A11.5,11.5,0,0,0,65.6,35.436v-.069l0-.046a11.505,11.505,0,0,0-3.388-8.129.383.383,0,1,0-.541.541,10.744,10.744,0,0,1,3.165,7.646v.06A10.736,10.736,0,0,1,61.673,43.017Z" transform="translate(-29.255 -25.433)" fill="#42a1c2"/>
      <path id="Tracé_122" data-name="Tracé 122" d="M58.085,42.488a9.113,9.113,0,0,0,2.685-6.429v-.123a9.112,9.112,0,0,0-2.685-6.42.392.392,0,0,0-.541,0,.382.382,0,0,0,0,.541,8.354,8.354,0,0,1,2.46,5.9v.084a8.358,8.358,0,0,1-2.461,5.9.382.382,0,0,0,0,.541A.391.391,0,0,0,58.085,42.488Z" transform="translate(-28.144 -26.06)" fill="#42a1c2"/>
      <path id="Tracé_123" data-name="Tracé 123" d="M30.4,29.4a.381.381,0,0,0-.271.112,9.118,9.118,0,0,0-2.685,6.431v.1a9.121,9.121,0,0,0,2.685,6.438.392.392,0,0,0,.541,0,.382.382,0,0,0,0-.541,8.354,8.354,0,0,1-2.461-5.9v-.1a8.36,8.36,0,0,1,2.461-5.9.383.383,0,0,0-.27-.653Z" transform="translate(-20.068 -26.059)" fill="#42a1c2"/>
      <path id="Tracé_124" data-name="Tracé 124" d="M21.425,24.935A13.82,13.82,0,0,0,17.353,34.7v.143a13.826,13.826,0,0,0,4.072,9.76.392.392,0,0,0,.541,0,.382.382,0,0,0,0-.541,13.065,13.065,0,0,1-3.848-9.3v-.061h0a13.059,13.059,0,0,1,3.847-9.217.382.382,0,0,0,0-.541A.392.392,0,0,0,21.425,24.935Z" transform="translate(-17.352 -24.826)" fill="#42a1c2"/>
      <path id="Tracé_125" data-name="Tracé 125" d="M25.739,27.192a11.5,11.5,0,0,0-3.388,8.121v.122a11.506,11.506,0,0,0,3.388,8.124.391.391,0,0,0,.541,0,.384.384,0,0,0,0-.541,10.738,10.738,0,0,1-3.165-7.646v-.058a10.743,10.743,0,0,1,3.164-7.58.383.383,0,0,0,.113-.271.379.379,0,0,0-.113-.27A.392.392,0,0,0,25.739,27.192Z" transform="translate(-18.697 -25.434)" fill="#42a1c2"/>
    </g>
  </g>
</svg>
